<?xml version="1.0" encoding="UTF-8"?>
<svg xmlns="http://www.w3.org/2000/svg" xmlns:xlink="http://www.w3.org/1999/xlink" width="2000px" height="1286px" viewBox="0 0 1999 1286" version="1.1">
<g id="surface1">
<rect x="0" y="0" width="1999" height="1286" style="fill:rgb(100%,100%,100%);fill-opacity:1;stroke:none;"/>
<path style="fill-rule:nonzero;fill:rgb(29.019608%,56.470588%,83.921569%);fill-opacity:1;stroke-width:2;stroke-linecap:butt;stroke-linejoin:round;stroke:rgb(13.333333%,13.333333%,13.333333%);stroke-opacity:1;stroke-miterlimit:4;" d="M 110.504981 50.881983 L 144.50511 50.881983 L 144.50511 68.881646 L 110.504981 68.881646 Z M 110.504981 50.881983 " transform="matrix(2.997001,0,0,2.997669,0,0)"/>
<path style="fill-rule:nonzero;fill:rgb(56.862745%,56.862745%,56.862745%);fill-opacity:1;stroke-width:2;stroke-linecap:butt;stroke-linejoin:round;stroke:rgb(13.333333%,13.333333%,13.333333%);stroke-opacity:1;stroke-miterlimit:4;" d="M 1.484557 0.857437 L 667.624322 0.857437 L 667.624322 429.406566 L 1.484557 429.406566 Z M 1.484557 0.857437 " transform="matrix(2.997001,0,0,2.997669,0,0)"/>
<path style="fill-rule:nonzero;fill:rgb(42.745098%,42.745098%,42.745098%);fill-opacity:1;stroke-width:2;stroke-linecap:butt;stroke-linejoin:round;stroke:rgb(13.333333%,13.333333%,13.333333%);stroke-opacity:1;stroke-miterlimit:4;" d="M 499.650442 93.000647 L 658.000119 93.000647 L 658.000119 294.312014 L 499.650442 294.312014 Z M 499.650442 93.000647 " transform="matrix(2.997001,0,0,2.997669,0,0)"/>
<path style="fill-rule:nonzero;fill:rgb(92.156863%,92.156863%,10.196078%);fill-opacity:1;stroke-width:2;stroke-linecap:butt;stroke-linejoin:round;stroke:rgb(13.333333%,13.333333%,13.333333%);stroke-opacity:1;stroke-miterlimit:4;" d="M 531.120699 317.15789 L 561.297997 317.15789 L 561.297997 345.862485 L 531.120699 345.862485 Z M 531.120699 317.15789 " transform="matrix(2.997001,0,0,2.997669,0,0)"/>
<path style="fill-rule:nonzero;fill:rgb(92.156863%,92.156863%,10.196078%);fill-opacity:1;stroke-width:2;stroke-linecap:butt;stroke-linejoin:round;stroke:rgb(13.333333%,13.333333%,13.333333%);stroke-opacity:1;stroke-miterlimit:4;" d="M 531.120699 317.15789 L 561.297997 317.15789 L 561.297997 345.862485 L 531.120699 345.862485 Z M 531.120699 317.15789 " transform="matrix(2.997001,0,0,2.997669,0,0)"/>
<path style="fill-rule:nonzero;fill:rgb(92.156863%,92.156863%,10.196078%);fill-opacity:1;stroke-width:2;stroke-linecap:butt;stroke-linejoin:round;stroke:rgb(13.333333%,13.333333%,13.333333%);stroke-opacity:1;stroke-miterlimit:4;" d="M 418.839203 230.873399 L 449.015197 230.873399 L 449.015197 259.577994 L 418.839203 259.577994 Z M 418.839203 230.873399 " transform="matrix(2.997001,0,0,2.997669,0,0)"/>
<path style="fill-rule:nonzero;fill:rgb(92.156863%,92.156863%,10.196078%);fill-opacity:1;stroke-width:2;stroke-linecap:butt;stroke-linejoin:round;stroke:rgb(13.333333%,13.333333%,13.333333%);stroke-opacity:1;stroke-miterlimit:4;" d="M 418.839203 230.873399 L 449.015197 230.873399 L 449.015197 259.577994 L 418.839203 259.577994 Z M 418.839203 230.873399 " transform="matrix(2.997001,0,0,2.997669,0,0)"/>
<path style="fill-rule:nonzero;fill:rgb(92.156863%,92.156863%,10.196078%);fill-opacity:1;stroke-width:2;stroke-linecap:butt;stroke-linejoin:round;stroke:rgb(13.333333%,13.333333%,13.333333%);stroke-opacity:1;stroke-miterlimit:4;" d="M 332.553742 250.873314 L 362.731039 250.873314 L 362.731039 279.577909 L 332.553742 279.577909 Z M 332.553742 250.873314 " transform="matrix(2.997001,0,0,2.997669,0,0)"/>
<path style="fill-rule:nonzero;fill:rgb(92.156863%,92.156863%,10.196078%);fill-opacity:1;stroke-width:2;stroke-linecap:butt;stroke-linejoin:round;stroke:rgb(13.333333%,13.333333%,13.333333%);stroke-opacity:1;stroke-miterlimit:4;" d="M 297.500477 250.993199 L 327.677774 250.993199 L 327.677774 279.697794 L 297.500477 279.697794 Z M 297.500477 250.993199 " transform="matrix(2.997001,0,0,2.997669,0,0)"/>
<path style="fill-rule:nonzero;fill:rgb(92.156863%,92.156863%,10.196078%);fill-opacity:1;stroke-width:2;stroke-linecap:butt;stroke-linejoin:round;stroke:rgb(13.333333%,13.333333%,13.333333%);stroke-opacity:1;stroke-miterlimit:4;" d="M 263.210996 250.348167 L 293.388294 250.348167 L 293.388294 279.052762 L 263.210996 279.052762 Z M 263.210996 250.348167 " transform="matrix(2.997001,0,0,2.997669,0,0)"/>
<path style="fill-rule:nonzero;fill:rgb(92.156863%,92.156863%,10.196078%);fill-opacity:1;stroke-width:2;stroke-linecap:butt;stroke-linejoin:round;stroke:rgb(13.333333%,13.333333%,13.333333%);stroke-opacity:1;stroke-miterlimit:4;" d="M 296.975212 195.413555 L 327.151206 195.413555 L 327.151206 224.11815 L 296.975212 224.11815 Z M 296.975212 195.413555 " transform="matrix(2.997001,0,0,2.997669,0,0)"/>
<path style="fill-rule:nonzero;fill:rgb(92.156863%,92.156863%,10.196078%);fill-opacity:1;stroke-width:2;stroke-linecap:butt;stroke-linejoin:round;stroke:rgb(13.333333%,13.333333%,13.333333%);stroke-opacity:1;stroke-miterlimit:4;" d="M 262.685732 163.418643 L 292.863029 163.418643 L 292.863029 192.123238 L 262.685732 192.123238 Z M 262.685732 163.418643 " transform="matrix(2.997001,0,0,2.997669,0,0)"/>
<path style="fill-rule:nonzero;fill:rgb(92.156863%,92.156863%,10.196078%);fill-opacity:1;stroke-width:2;stroke-linecap:butt;stroke-linejoin:round;stroke:rgb(13.333333%,13.333333%,13.333333%);stroke-opacity:1;stroke-miterlimit:4;" d="M 297.213732 163.537225 L 327.391029 163.537225 L 327.391029 192.243123 L 297.213732 192.243123 Z M 297.213732 163.537225 " transform="matrix(2.997001,0,0,2.997669,0,0)"/>
<path style="fill-rule:nonzero;fill:rgb(92.156863%,92.156863%,10.196078%);fill-opacity:1;stroke-width:2;stroke-linecap:butt;stroke-linejoin:round;stroke:rgb(13.333333%,13.333333%,13.333333%);stroke-opacity:1;stroke-miterlimit:4;" d="M 297.213732 163.537225 L 327.391029 163.537225 L 327.391029 192.243123 L 297.213732 192.243123 Z M 297.213732 163.537225 " transform="matrix(2.997001,0,0,2.997669,0,0)"/>
<path style="fill-rule:nonzero;fill:rgb(92.156863%,92.156863%,10.196078%);fill-opacity:1;stroke-width:2;stroke-linecap:butt;stroke-linejoin:round;stroke:rgb(13.333333%,13.333333%,13.333333%);stroke-opacity:1;stroke-miterlimit:4;" d="M 303.450434 42.844488 L 333.627732 42.844488 L 333.627732 71.549083 L 303.450434 71.549083 Z M 303.450434 42.844488 " transform="matrix(2.997001,0,0,2.997669,0,0)"/>
<path style="fill-rule:nonzero;fill:rgb(92.156863%,92.156863%,10.196078%);fill-opacity:1;stroke-width:2;stroke-linecap:butt;stroke-linejoin:round;stroke:rgb(13.333333%,13.333333%,13.333333%);stroke-opacity:1;stroke-miterlimit:4;" d="M 48.946057 37.611255 L 79.123355 37.611255 L 79.123355 66.317153 L 48.946057 66.317153 Z M 48.946057 37.611255 " transform="matrix(2.997001,0,0,2.997669,0,0)"/>
<path style="fill-rule:nonzero;fill:rgb(92.156863%,92.156863%,10.196078%);fill-opacity:1;stroke-width:2;stroke-linecap:butt;stroke-linejoin:round;stroke:rgb(13.333333%,13.333333%,13.333333%);stroke-opacity:1;stroke-miterlimit:4;" d="M 91.884808 37.73114 L 122.062105 37.73114 L 122.062105 66.435735 L 91.884808 66.435735 Z M 91.884808 37.73114 " transform="matrix(2.997001,0,0,2.997669,0,0)"/>
<path style="fill-rule:nonzero;fill:rgb(92.156863%,92.156863%,10.196078%);fill-opacity:1;stroke-width:2;stroke-linecap:butt;stroke-linejoin:round;stroke:rgb(13.333333%,13.333333%,13.333333%);stroke-opacity:1;stroke-miterlimit:4;" d="M 85.122841 151.780694 L 115.300138 151.780694 L 115.300138 180.486592 L 85.122841 180.486592 Z M 85.122841 151.780694 " transform="matrix(2.997001,0,0,2.997669,0,0)"/>
<path style="fill-rule:nonzero;fill:rgb(92.156863%,92.156863%,10.196078%);fill-opacity:1;stroke-width:2;stroke-linecap:butt;stroke-linejoin:round;stroke:rgb(13.333333%,13.333333%,13.333333%);stroke-opacity:1;stroke-miterlimit:4;" d="M 128.826679 151.900579 L 159.003977 151.900579 L 159.003977 180.605174 L 128.826679 180.605174 Z M 128.826679 151.900579 " transform="matrix(2.997001,0,0,2.997669,0,0)"/>
<path style="fill-rule:nonzero;fill:rgb(92.156863%,92.156863%,10.196078%);fill-opacity:1;stroke-width:2;stroke-linecap:butt;stroke-linejoin:round;stroke:rgb(13.333333%,13.333333%,13.333333%);stroke-opacity:1;stroke-miterlimit:4;" d="M 338.743522 42.964373 L 368.919516 42.964373 L 368.919516 71.668968 L 338.743522 71.668968 Z M 338.743522 42.964373 " transform="matrix(2.997001,0,0,2.997669,0,0)"/>
<path style="fill-rule:nonzero;fill:rgb(92.156863%,92.156863%,10.196078%);fill-opacity:1;stroke-width:2;stroke-linecap:butt;stroke-linejoin:round;stroke:rgb(13.333333%,13.333333%,13.333333%);stroke-opacity:1;stroke-miterlimit:4;" d="M 374.035307 43.082955 L 404.212604 43.082955 L 404.212604 71.788853 L 374.035307 71.788853 Z M 374.035307 43.082955 " transform="matrix(2.997001,0,0,2.997669,0,0)"/>
<path style="fill-rule:nonzero;fill:rgb(92.156863%,92.156863%,10.196078%);fill-opacity:1;stroke-width:2;stroke-linecap:butt;stroke-linejoin:round;stroke:rgb(13.333333%,13.333333%,13.333333%);stroke-opacity:1;stroke-miterlimit:4;" d="M 409.328395 43.202839 L 439.505692 43.202839 L 439.505692 71.907435 L 409.328395 71.907435 Z M 409.328395 43.202839 " transform="matrix(2.997001,0,0,2.997669,0,0)"/>
<path style="fill-rule:nonzero;fill:rgb(92.156863%,92.156863%,10.196078%);fill-opacity:1;stroke-width:2;stroke-linecap:butt;stroke-linejoin:round;stroke:rgb(13.333333%,13.333333%,13.333333%);stroke-opacity:1;stroke-miterlimit:4;" d="M 331.741732 163.65711 L 361.91903 163.65711 L 361.91903 192.361705 L 331.741732 192.361705 Z M 331.741732 163.65711 " transform="matrix(2.997001,0,0,2.997669,0,0)"/>
<path style="fill-rule:nonzero;fill:rgb(92.156863%,92.156863%,10.196078%);fill-opacity:1;stroke-width:2;stroke-linecap:butt;stroke-linejoin:round;stroke:rgb(13.333333%,13.333333%,13.333333%);stroke-opacity:1;stroke-miterlimit:4;" d="M 331.503213 195.53344 L 361.679207 195.53344 L 361.679207 224.238035 L 331.503213 224.238035 Z M 331.503213 195.53344 " transform="matrix(2.997001,0,0,2.997669,0,0)"/>
<path style="fill-rule:nonzero;fill:rgb(92.156863%,92.156863%,10.196078%);fill-opacity:1;stroke-width:2;stroke-linecap:butt;stroke-linejoin:round;stroke:rgb(13.333333%,13.333333%,13.333333%);stroke-opacity:1;stroke-miterlimit:4;" d="M 262.805643 194.887105 L 292.981637 194.887105 L 292.981637 223.593003 L 262.805643 223.593003 Z M 262.805643 194.887105 " transform="matrix(2.997001,0,0,2.997669,0,0)"/>
<path style="fill-rule:nonzero;fill:rgb(92.156863%,92.156863%,10.196078%);fill-opacity:1;stroke-width:2;stroke-linecap:butt;stroke-linejoin:round;stroke:rgb(13.333333%,13.333333%,13.333333%);stroke-opacity:1;stroke-miterlimit:4;" d="M 418.194027 265.40153 L 448.370021 265.40153 L 448.370021 294.106125 L 418.194027 294.106125 Z M 418.194027 265.40153 " transform="matrix(2.997001,0,0,2.997669,0,0)"/>
<path style="fill-rule:nonzero;fill:rgb(92.156863%,92.156863%,10.196078%);fill-opacity:1;stroke-width:2;stroke-linecap:butt;stroke-linejoin:round;stroke:rgb(13.333333%,13.333333%,13.333333%);stroke-opacity:1;stroke-miterlimit:4;" d="M 452.722027 265.521415 L 482.898021 265.521415 L 482.898021 294.22601 L 452.722027 294.22601 Z M 452.722027 265.521415 " transform="matrix(2.997001,0,0,2.997669,0,0)"/>
<path style="fill-rule:nonzero;fill:rgb(92.156863%,92.156863%,10.196078%);fill-opacity:1;stroke-width:2;stroke-linecap:butt;stroke-linejoin:round;stroke:rgb(13.333333%,13.333333%,13.333333%);stroke-opacity:1;stroke-miterlimit:4;" d="M 383.25937 265.639996 L 413.436668 265.639996 L 413.436668 294.345894 L 383.25937 294.345894 Z M 383.25937 265.639996 " transform="matrix(2.997001,0,0,2.997669,0,0)"/>
<path style="fill-rule:nonzero;fill:rgb(92.156863%,92.156863%,10.196078%);fill-opacity:1;stroke-width:2;stroke-linecap:butt;stroke-linejoin:round;stroke:rgb(13.333333%,13.333333%,13.333333%);stroke-opacity:1;stroke-miterlimit:4;" d="M 418.552458 300.168127 L 448.728452 300.168127 L 448.728452 328.872722 L 418.552458 328.872722 Z M 418.552458 300.168127 " transform="matrix(2.997001,0,0,2.997669,0,0)"/>
<path style="fill-rule:nonzero;fill:rgb(92.156863%,92.156863%,10.196078%);fill-opacity:1;stroke-width:2;stroke-linecap:butt;stroke-linejoin:round;stroke:rgb(13.333333%,13.333333%,13.333333%);stroke-opacity:1;stroke-miterlimit:4;" d="M 453.080458 300.288012 L 483.256452 300.288012 L 483.256452 328.992607 L 453.080458 328.992607 Z M 453.080458 300.288012 " transform="matrix(2.997001,0,0,2.997669,0,0)"/>
<path style="fill-rule:nonzero;fill:rgb(92.156863%,92.156863%,10.196078%);fill-opacity:1;stroke-width:2;stroke-linecap:butt;stroke-linejoin:round;stroke:rgb(13.333333%,13.333333%,13.333333%);stroke-opacity:1;stroke-miterlimit:4;" d="M 383.617801 300.407896 L 413.793795 300.407896 L 413.793795 329.112491 L 383.617801 329.112491 Z M 383.617801 300.407896 " transform="matrix(2.997001,0,0,2.997669,0,0)"/>
<path style="fill-rule:nonzero;fill:rgb(92.156863%,92.156863%,10.196078%);fill-opacity:1;stroke-width:2;stroke-linecap:butt;stroke-linejoin:round;stroke:rgb(13.333333%,13.333333%,13.333333%);stroke-opacity:1;stroke-miterlimit:4;" d="M 585.529247 317.277775 L 615.706545 317.277775 L 615.706545 345.98237 L 585.529247 345.98237 Z M 585.529247 317.277775 " transform="matrix(2.997001,0,0,2.997669,0,0)"/>
<path style="fill-rule:nonzero;fill:rgb(4.313725%,83.529412%,83.529412%);fill-opacity:1;stroke-width:2;stroke-linecap:butt;stroke-linejoin:round;stroke:rgb(13.333333%,13.333333%,13.333333%);stroke-opacity:1;stroke-miterlimit:4;" d="M 79.128568 314.125586 C 79.128568 289.850214 100.648776 270.186498 127.215694 270.186498 C 153.782612 270.186498 175.302819 289.850214 175.302819 314.125586 C 175.302819 338.402262 153.782612 358.065978 127.215694 358.065978 C 100.648776 358.065978 79.128568 338.402262 79.128568 314.125586 Z M 79.128568 314.125586 " transform="matrix(2.997001,0,0,2.997669,0,0)"/>
<path style="fill-rule:nonzero;fill:rgb(14.117647%,14.117647%,14.117647%);fill-opacity:1;stroke-width:2;stroke-linecap:butt;stroke-linejoin:round;stroke:rgb(13.333333%,13.333333%,13.333333%);stroke-opacity:1;stroke-miterlimit:4;" d="M 112.172012 255.239988 L 124.988207 241.319015 L 137.803099 255.239988 L 131.395653 255.239988 L 131.395653 269.227419 L 118.579458 269.227419 L 118.579458 255.239988 Z M 112.172012 255.239988 " transform="matrix(2.997001,0,0,2.997669,0,0)"/>
<path style="fill-rule:nonzero;fill:rgb(29.019608%,56.470588%,83.921569%);fill-opacity:1;stroke-width:2;stroke-linecap:butt;stroke-linejoin:round;stroke:rgb(13.333333%,13.333333%,13.333333%);stroke-opacity:1;stroke-miterlimit:4;" d="M 95.950069 259.27307 L 102.40183 269.488038 " transform="matrix(2.997001,0,0,2.997669,0,0)"/>
<path style="fill-rule:nonzero;fill:rgb(29.019608%,56.470588%,83.921569%);fill-opacity:1;stroke-width:2;stroke-linecap:butt;stroke-linejoin:round;stroke:rgb(13.333333%,13.333333%,13.333333%);stroke-opacity:1;stroke-miterlimit:4;" d="M 81.434258 265.639996 L 92.724188 276.393143 " transform="matrix(2.997001,0,0,2.997669,0,0)"/>
<path style="fill-rule:nonzero;fill:rgb(29.019608%,56.470588%,83.921569%);fill-opacity:1;stroke-width:2;stroke-linecap:butt;stroke-linejoin:round;stroke:rgb(13.333333%,13.333333%,13.333333%);stroke-opacity:1;stroke-miterlimit:4;" d="M 70.477995 277.468197 L 81.769228 284.458003 " transform="matrix(2.997001,0,0,2.997669,0,0)"/>
<path style="fill-rule:nonzero;fill:rgb(29.019608%,56.470588%,83.921569%);fill-opacity:1;stroke-width:2;stroke-linecap:butt;stroke-linejoin:round;stroke:rgb(13.333333%,13.333333%,13.333333%);stroke-opacity:1;stroke-miterlimit:4;" d="M 157.335642 256.75158 L 150.885185 268.041602 " transform="matrix(2.997001,0,0,2.997669,0,0)"/>
<path style="fill-rule:nonzero;fill:rgb(29.019608%,56.470588%,83.921569%);fill-opacity:1;stroke-width:2;stroke-linecap:butt;stroke-linejoin:round;stroke:rgb(13.333333%,13.333333%,13.333333%);stroke-opacity:1;stroke-miterlimit:4;" d="M 173.298212 259.893344 L 162.008281 274.94801 " transform="matrix(2.997001,0,0,2.997669,0,0)"/>
<path style="fill-rule:nonzero;fill:rgb(29.019608%,56.470588%,83.921569%);fill-opacity:1;stroke-width:2;stroke-linecap:butt;stroke-linejoin:round;stroke:rgb(13.333333%,13.333333%,13.333333%);stroke-opacity:1;stroke-miterlimit:4;" d="M 185.269813 275.174748 L 170.752699 284.314663 " transform="matrix(2.997001,0,0,2.997669,0,0)"/>
<path style="fill-rule:nonzero;fill:rgb(10.196078%,92.156863%,10.196078%);fill-opacity:1;stroke-width:2;stroke-linecap:butt;stroke-linejoin:round;stroke:rgb(13.333333%,13.333333%,13.333333%);stroke-opacity:1;stroke-miterlimit:4;" d="M 565.437551 120.661462 L 578.449254 107.694356 L 591.459654 120.661462 L 584.954454 120.661462 L 584.954454 133.691118 L 571.942751 133.691118 L 571.942751 120.661462 Z M 565.437551 120.661462 " transform="matrix(2.997001,0,0,2.997669,0,0)"/>
<path style="fill-rule:nonzero;fill:rgb(92.156863%,10.196078%,10.196078%);fill-opacity:1;stroke-width:2;stroke-linecap:butt;stroke-linejoin:round;stroke:rgb(13.333333%,13.333333%,13.333333%);stroke-opacity:1;stroke-miterlimit:4;" d="M 565.22877 274.920384 L 577.091757 263.096921 L 588.954535 274.919659 L 583.022768 274.919839 L 583.023065 286.800278 L 571.159531 286.800638 L 571.159234 274.920198 Z M 565.22877 274.920384 " transform="matrix(-2.996973,0.0130798,-0.0130768,-2.99764,3462.664186,1640.856131)"/>
<path style="fill-rule:nonzero;fill:rgb(100%,100%,100%);fill-opacity:1;stroke-width:2;stroke-linecap:butt;stroke-linejoin:round;stroke:rgb(13.333333%,13.333333%,13.333333%);stroke-opacity:1;stroke-miterlimit:4;" d="M 55.000285 364.999751 L 206.000168 364.999751 L 206.000168 384.999666 L 55.000285 384.999666 Z M 55.000285 364.999751 " transform="matrix(2.997001,0,0,2.997669,0,0)"/>
<path style="fill-rule:nonzero;fill:rgb(100%,100%,100%);fill-opacity:1;stroke-width:2;stroke-linecap:butt;stroke-linejoin:round;stroke:rgb(13.333333%,13.333333%,13.333333%);stroke-opacity:1;stroke-miterlimit:4;" d="M 516.000117 106.999806 L 539.999365 106.999806 L 539.999365 287.999818 L 516.000117 287.999818 Z M 516.000117 106.999806 " transform="matrix(2.997001,0,0,2.997669,0,0)"/>
<path style="fill-rule:nonzero;fill:rgb(100%,100%,100%);fill-opacity:1;stroke-width:2;stroke-linecap:butt;stroke-linejoin:round;stroke:rgb(13.333333%,13.333333%,13.333333%);stroke-opacity:1;stroke-miterlimit:4;" d="M 615.599667 109.999532 L 640.599915 109.999532 L 640.599915 285.000091 L 615.599667 285.000091 Z M 615.599667 109.999532 " transform="matrix(2.997001,0,0,2.997669,0,0)"/>
</g>
</svg>
